<svg id="Layer_1" data-name="Layer 1" xmlns="http://www.w3.org/2000/svg" viewBox="0 0 98.99 98.92"><defs><style>.cls-1{fill:#010101;}.cls-2{fill:#f6f5f5;}.cls-3{fill:#c4c2c2;}.cls-4{fill:#bdbbbb;}.cls-5{fill:#b4b2b2;}.cls-6{fill:#d4d3d3;}.cls-7{fill:#d2d1d1;}.cls-8{fill:#cececd;}.cls-9{fill:#cccbcb;}.cls-10{fill:#cecccc;}.cls-11{fill:#dcdbda;}.cls-12{fill:#d8d7d7;}.cls-13{fill:#e4e3e2;}.cls-14{fill:#d5d5d4;}.cls-15{fill:#dddcdb;}.cls-16{fill:#d4d4d3;}.cls-17{fill:#f7f6f6;}.cls-18{fill:#494949;}.cls-19{fill:#d3d3d3;}.cls-20{fill:#494a4a;}.cls-21{fill:#e9e8e8;}.cls-22{fill:#e8e7e6;}.cls-23{fill:#ececeb;}.cls-24{fill:#7a7979;}.cls-25{fill:#e6e5e5;}.cls-26{fill:#7b7a7a;}.cls-27{fill:#3b3b3b;}.cls-28{fill:#393a3a;}.cls-29{fill:#3c3c3c;}.cls-30{fill:#f5f5f5;}.cls-31{fill:#f4f3f3;}.cls-32{fill:#f5f4f4;}.cls-33{fill:#f6f6f5;}.cls-34{fill:#f5f5f4;}.cls-35{fill:#f7f7f6;}.cls-36{fill:#231f20;}</style></defs><path class="cls-1" d="M45.93.69a35,35,0,0,1,7.93,0,15.87,15.87,0,0,1,4.72.2A49.67,49.67,0,0,1,95.87,30.76,51.59,51.59,0,0,1,99,41.14,17.28,17.28,0,0,1,99.17,46a36.43,36.43,0,0,1,0,7.95,16.54,16.54,0,0,1-.2,4.61,49.41,49.41,0,0,1-15.7,28.42,48.31,48.31,0,0,1-16.8,9.94,51.17,51.17,0,0,1-7.68,2.05,18.43,18.43,0,0,1-4.92.25,37.82,37.82,0,0,1-8,0A17,17,0,0,1,41.2,99,50,50,0,0,1,21,90.54,49.2,49.2,0,0,1,4.7,70.89,50,50,0,0,1,.83,58.61,16.16,16.16,0,0,1,.62,53.9,36.34,36.34,0,0,1,.62,46a15.42,15.42,0,0,1,.19-4.6A49.81,49.81,0,0,1,33.44,2.94a47.48,47.48,0,0,1,7.68-2A17.59,17.59,0,0,1,45.93.69Z" transform="translate(-0.4 -0.47)"/><path class="cls-2" d="M23.42,50q0-12.66,0-25.33c0-2.82,1.53-4.32,4.34-4.32H73.39a3.92,3.92,0,0,1,4.22,4.16q0,25.53,0,51.07a4,4,0,0,1-4.18,4.13H27.82c-2.89,0-4.41-1.53-4.41-4.39V50Z" transform="translate(-0.4 -0.47)"/><path class="cls-3" d="M41.62,89.25c.15-.18,0-.57.26-.61s.23.31.29.51.06.25.25.19c.68-.24.36,0,.17.3s.25.48.27,1c.36-.85,0-1.53.43-2.25a3.47,3.47,0,0,1,.09,2.17c0,.08-.52.09-.77,0-.88-.26-.88-.27-1-1.22-.07,0-.1-.07-.07-.11A.1.1,0,0,1,41.62,89.25Z" transform="translate(-0.4 -0.47)"/><path class="cls-4" d="M38.93,90.67c-.81-.09-.09-.86-.52-1.13-.41.27.07.87-.41,1.16-.49-.28,0-.87-.39-1.18-.41.28,0,.86-.42,1.22a1.22,1.22,0,0,1-.2-1.33c.12-.38.61-.21.93-.18s.76-.21,1,.19A1,1,0,0,1,38.93,90.67Z" transform="translate(-0.4 -0.47)"/><path class="cls-5" d="M53.83,89.43c.23-.31.93-.06.91-.73a.51.51,0,0,1,.25-.06c.32.49.09,1,.15,1.56,0,.31-.06.49-.43.51-1.05,0-.94-.63-.86-1.3Z" transform="translate(-0.4 -0.47)"/><path class="cls-6" d="M59,89.6a.69.69,0,0,1,1.17-.24A1.65,1.65,0,0,1,60.08,91c-.28.5-.71.28-1.15.18.23-.53.65.14.82-.43-.22-.16-.73,0-.79-.47A.6.6,0,0,1,59,89.6Z" transform="translate(-0.4 -0.47)"/><path class="cls-7" d="M50.36,89.41a2.42,2.42,0,0,1-.06.75c-.1.19.48.42,0,.51-.32.06-.37-.22-.37-.48a9.38,9.38,0,0,1,0-1.06c0-.27.15-.48.42-.16,0,0,0,.17.08.18.26.09.78.67.68.91s.53.51,0,.6-.33-.38-.38-.65S50.76,89.59,50.36,89.41Z" transform="translate(-0.4 -0.47)"/><path class="cls-8" d="M48.42,90.32c-.12,0-.26-.12-.35,0a.83.83,0,0,1-1.09.28c-.4-.14-.15-.59-.18-.9s0-.73,0-1.39a2.55,2.55,0,0,0,1.63,1.23A.51.51,0,0,1,48.42,90.32Z" transform="translate(-0.4 -0.47)"/><path class="cls-9" d="M45,89.8a13.7,13.7,0,0,0,1.62-1.18,9,9,0,0,1,0,1.16c0,.3.24.74-.23.88a.81.81,0,0,1-1.1-.45c0-.1-.2-.14-.3-.21A.13.13,0,0,1,45,89.8Z" transform="translate(-0.4 -0.47)"/><path class="cls-10" d="M39.33,89.43c.36-.3.8-.41,1.05,0a1.17,1.17,0,0,1,.07,1.07.8.8,0,0,1-1.16,0c-.13-.17-.18-.48,0-.53C39.75,89.82,39.17,89.58,39.33,89.43Z" transform="translate(-0.4 -0.47)"/><path class="cls-11" d="M52.62,90.49c-.38.29-.75.34-1.06-.06a.71.71,0,0,1,0-.94.74.74,0,1,1,1.08,1Z" transform="translate(-0.4 -0.47)"/><path class="cls-12" d="M45,89.8a.44.44,0,0,0,0,.2c-.23.17-.6-.06-.81.19.22.55.56-.12.87.23-.44.36-.84.45-1.18,0A.71.71,0,0,1,44,89.31C44.45,89.07,44.88,89.16,45,89.8Z" transform="translate(-0.4 -0.47)"/><path class="cls-13" d="M56.7,90.45a.82.82,0,0,1-1.26-.09c-.25-.28-.29-.49,0-.79a.73.73,0,0,1,1.15-.15C57.13,89.69,56.45,90.13,56.7,90.45Z" transform="translate(-0.4 -0.47)"/><path class="cls-14" d="M61.35,90.66l-.15-1.2c-.67.22-.09.92-.61,1.25a1.34,1.34,0,0,1-.05-1.39c.15-.24.71-.23.93,0C61.86,89.69,61.73,90.19,61.35,90.66Z" transform="translate(-0.4 -0.47)"/><path class="cls-15" d="M48.42,90.32v-.74c.08-.34.34-.37.63-.36a.54.54,0,0,1,.56.6c0,.54-.64,0-.86.36.14.62.57-.14.86.27C49.15,90.71,48.78,90.93,48.42,90.32Z" transform="translate(-0.4 -0.47)"/><path class="cls-16" d="M62.74,90.27c-.14-.38-1.09-.13-.72-.81.23-.42.67-.38,1,0-.18.42-.49-.25-.66.12.1.41,1.08.12.72.83-.28.55-.73.25-1.16.1C62.17,90,62.48,90.72,62.74,90.27Z" transform="translate(-0.4 -0.47)"/><path class="cls-17" d="M33.59,90.26c-.28,0-.64.12-.67-.38s.29-.47.6-.45.64-.14.66.38S33.92,90.29,33.59,90.26Z" transform="translate(-0.4 -0.47)"/><path class="cls-15" d="M56.91,89.42a.68.68,0,0,1,1.05,0c-.17.41-.5-.25-.66.15.07.43,1.08,0,.73.77-.26.53-.73.38-1.14.1C57.16,90.13,56.7,89.77,56.91,89.42Z" transform="translate(-0.4 -0.47)"/><path class="cls-18" d="M56.91,89.42c-.11.63.55.53.8.8-.13.63-.67-.24-.82.26h-.1l-.09,0c-.22-.47-.72.39-.94-.29.07-.37,1.32.25.8-.74Z" transform="translate(-0.4 -0.47)"/><path class="cls-19" d="M41.62,89.25v.16c-.79.14-.15.92-.6,1.28-.41-.37-.27-.88-.19-1.27S41.34,89.25,41.62,89.25Z" transform="translate(-0.4 -0.47)"/><path class="cls-20" d="M39.33,89.43c.15.47.56-.27.74.22-.18.32-1,.13-.78.84l-.36.18,0-1.25Z" transform="translate(-0.4 -0.47)"/><path class="cls-21" d="M33.12,88.75c0-.25.16-.48.4-.52s.37.24.44.46c.11.41-.21.33-.42.33S33.1,89.09,33.12,88.75Z" transform="translate(-0.4 -0.47)"/><path class="cls-22" d="M34,91.05c-.08.17-.14.46-.43.42a.55.55,0,0,1-.39-.53c0-.4.32-.25.52-.27S34,90.74,34,91.05Z" transform="translate(-0.4 -0.47)"/><path class="cls-23" d="M32.52,89.84c0,.28-.05.46-.34.41s-.29-.24-.29-.46.12-.37.37-.35S32.5,89.7,32.52,89.84Z" transform="translate(-0.4 -0.47)"/><path class="cls-23" d="M34.84,89.43c.27,0,.36.13.36.38s0,.41-.3.44-.32-.17-.32-.38S34.52,89.44,34.84,89.43Z" transform="translate(-0.4 -0.47)"/><path class="cls-24" d="M52.62,90.49l0-1,.44-.19a2.39,2.39,0,0,1,0,1.4Z" transform="translate(-0.4 -0.47)"/><path class="cls-25" d="M53,90.65v-1.4c.29,0,.6-.14.8.18l0,0c-.48,0-.53.26-.56.63C53.28,90.26,53.46,90.61,53,90.65Z" transform="translate(-0.4 -0.47)"/><path class="cls-26" d="M59,89.6v.7c-.16.1-.29.47-.44.26a.92.92,0,0,1,0-1.12C58.76,89.13,58.81,89.56,59,89.6Z" transform="translate(-0.4 -0.47)"/><path class="cls-1" d="M73.11,50.08c0,8.06,0,16.13,0,24.19,0,.78-.16,1-1,1q-21.57,0-43.14,0c-.87,0-1.16-.16-1.16-1.11q.06-24.3,0-48.59c0-.66.14-.88.85-.88q21.76,0,43.55,0c.64,0,.88.1.88.83,0,8.17,0,16.33,0,24.5Z" transform="translate(-0.4 -0.47)"/><path class="cls-27" d="M59.5,90.44a.56.56,0,0,1-.21-.64c0-.14.07-.39.3-.31s.24.38.22.61A.34.34,0,0,1,59.5,90.44Z" transform="translate(-0.4 -0.47)"/><path class="cls-28" d="M47.41,90.42c-.26-.13-.24-.37-.19-.61s.11-.38.3-.31a.44.44,0,0,1,.22.6C47.7,90.24,47.66,90.45,47.41,90.42Z" transform="translate(-0.4 -0.47)"/><path class="cls-29" d="M45.83,89.48c.23,0,.3.17.33.33s.07.51-.22.6-.26-.17-.31-.31A.54.54,0,0,1,45.83,89.48Z" transform="translate(-0.4 -0.47)"/><path class="cls-30" d="M50.52,71.38c-5.72,0-11.44,0-17.17,0-.68,0-1-.13-.94-.9a12.1,12.1,0,0,0,0-2.17c0-.66.23-.8.84-.8q17.22,0,34.44,0c.76,0,.93.25.88.93-.07.93.29,2.14-.17,2.71s-1.75.19-2.66.2C60.66,71.4,55.59,71.39,50.52,71.38Z" transform="translate(-0.4 -0.47)"/><path class="cls-31" d="M50.42,55.71c-5.72,0-11.44,0-17.17,0-.7,0-.9-.21-.85-.88a13.1,13.1,0,0,0,0-2.17c0-.66.21-.8.83-.8q10.59,0,21.2,0c4.38,0,8.76,0,13.14,0,.84,0,1.06.25,1,1s.28,2.09-.17,2.59-1.75.19-2.67.19C60.63,55.72,55.53,55.71,50.42,55.71Z" transform="translate(-0.4 -0.47)"/><path class="cls-32" d="M50.52,59.43c5.65,0,11.3,0,17,0,.81,0,1.2.11,1.09,1s.36,2-.19,2.58-1.7.17-2.58.17q-16.23,0-32.47,0c-.69,0-1-.11-.91-.88.13-.94-.43-2.21.2-2.75s1.77-.15,2.7-.15Z" transform="translate(-0.4 -0.47)"/><path class="cls-33" d="M41.41,47.4c-2.28,0-4.55,0-6.83,0-.64,0-.84-.18-.8-.81a23.22,23.22,0,0,1,.15-3.91,3.61,3.61,0,0,1,3.54-2.91c2.65,0,5.3-.05,8,0a3.7,3.7,0,0,1,3.65,3.71c0,1.07,0,2.14,0,3.21,0,.6-.19.74-.76.73-2.31,0-4.62,0-6.93,0Z" transform="translate(-0.4 -0.47)"/><path class="cls-33" d="M61.38,29.28c2.14,0,4.28,0,6.41,0,.57,0,.81.13.77.74-.06,1,.31,2.26-.17,2.91s-1.8.17-2.76.18c-3.41,0-6.82,0-10.23,0-1,0-1.25-.32-1.16-1.22a9.63,9.63,0,0,0,0-1.86c0-.65.2-.81.82-.8C57.18,29.31,59.28,29.28,61.38,29.28Z" transform="translate(-0.4 -0.47)"/><path class="cls-34" d="M45.58,35a4.14,4.14,0,1,1-4.11-4.13A4.12,4.12,0,0,1,45.58,35Z" transform="translate(-0.4 -0.47)"/><path class="cls-34" d="M61.38,36.86c2.07,0,4.14,0,6.21,0,.86,0,1,.26,1,1a15.72,15.72,0,0,0,0,2.17c0,.46-.15.58-.6.58q-6.51,0-13,0c-.57,0-.7-.22-.68-.73a23.62,23.62,0,0,0,0-2.38c0-.58.23-.67.73-.67C57.11,36.87,59.24,36.86,61.38,36.86Z" transform="translate(-0.4 -0.47)"/><path class="cls-35" d="M61.38,48.11c-2.07,0-4.13,0-6.2,0-.7,0-1-.14-.93-.89.1-.92-.38-2.12.17-2.69s1.76-.17,2.68-.17c3.52,0,7,0,10.55,0,.7,0,1,.13.92.89s.28,2.13-.19,2.69-1.74.16-2.65.18C64.28,48.14,62.83,48.11,61.38,48.11Z" transform="translate(-0.4 -0.47)"/><path class="cls-36" d="M31,90.4q5.94.18,11.86.76a2.5,2.5,0,0,0,.66-4.91c-3.39-.94-7.17-.62-9.77,2a2.52,2.52,0,0,0,1.1,4.18,8.63,8.63,0,0,0,1.83.21,2.5,2.5,0,1,0,0-5l-6.74-.35a2.51,2.51,0,0,0-2.5,2.5,2.55,2.55,0,0,0,2.5,2.5l6.74.35v-5h-.47c.28,0,.27,0,0,0l1.1,4.18c.11-.11.76-.58.28-.28l.71-.41c.26-.12.25-.12,0,0l.4-.13c.23-.07.47-.11.7-.17s.14,0-.12,0l.49,0c.33,0,.65,0,1,0s.32,0,.06,0l.49.09c.32.06.64.14.95.23l.67-4.91Q36.93,85.57,31,85.4a2.5,2.5,0,0,0,0,5Z" transform="translate(-0.4 -0.47)"/><path class="cls-1" d="M40.33,91.24c2.2-.06,4.4,0,6.59.08,1,.05,2.11.13,3.16.23l1.57.17.91.12c.18,0,.18,0,0,0l.52.08a2.56,2.56,0,0,0,3-1.45,2.47,2.47,0,0,0-1-3.12,13.17,13.17,0,0,0-6.72-1.27c-1.22.07-2.45.25-3.66.42-.18,0-.17,0,0,0l-.51.07-.76.09c-.6.06-1.2.11-1.8.13a2.5,2.5,0,0,0,0,5c3.7,0,7.39,0,11.09,0L52,86.89c-.1,0-1,.19-.49.13a5.48,5.48,0,0,1-.7,0c-.56,0-1.11,0-1.66,0a2.51,2.51,0,0,0-2.5,2.5,2.55,2.55,0,0,0,2.5,2.5,13.06,13.06,0,0,0,4.18-.29,2.52,2.52,0,0,0-.66-4.92c-3.7,0-7.39,0-11.09,0v5c1,0,2-.15,3.07-.29l1.18-.15a3.37,3.37,0,0,1,.36,0c.54-.07,1.09-.14,1.65-.18a22.94,22.94,0,0,1,2.75,0c.19,0,.15,0-.1,0l.34.06c.23,0,.45.09.67.15s.43.15.65.2.14,0-.07,0l.41.2,1.92-4.57a81.7,81.7,0,0,0-14.07-.85,2.5,2.5,0,0,0,0,5Z" transform="translate(-0.4 -0.47)"/><path class="cls-1" d="M63.27,86.5H57.35c-2,0-4.19-.22-6.1.44a2.5,2.5,0,1,0,1.33,4.82c.23-.08.47-.12.69-.2s.14,0-.15,0l.31,0c.44,0,.9,0,1.35,0h8.49a2.5,2.5,0,0,0,0-5Z" transform="translate(-0.4 -0.47)"/><path class="cls-1" d="M54.05,87,35.41,84.39a2.6,2.6,0,0,0-3.08,1.75c-.32,1.17.4,2.89,1.75,3.07l18.64,2.57A2.59,2.59,0,0,0,55.8,90c.32-1.16-.4-2.89-1.75-3.07Z" transform="translate(-0.4 -0.47)"/><path class="cls-1" d="M40.47,84.48a74,74,0,0,0-10.53.21,2.5,2.5,0,1,0,0,5,74,74,0,0,1,10.53-.21A2.51,2.51,0,0,0,43,87a2.57,2.57,0,0,0-2.5-2.5Z" transform="translate(-0.4 -0.47)"/><path class="cls-1" d="M25.36,84.15a3,3,0,0,0-.82,3.11,4.54,4.54,0,0,0,2,2.33,14.88,14.88,0,0,0,3.62,1.84,34.33,34.33,0,0,0,7.65,1.51,2.51,2.51,0,0,0,1.77-.73,2.57,2.57,0,0,0,.73-1.77,2.53,2.53,0,0,0-.73-1.77,2.87,2.87,0,0,0-1.77-.73l-.7-.09c-.16,0-1-.08-.23,0a13.9,13.9,0,0,1-1.42-.21,26.91,26.91,0,0,1-2.8-.62c-.45-.13-.9-.28-1.34-.45L31,86.42c.33.14.37.15.12,0l-.63-.31a9.77,9.77,0,0,1-1.2-.72L29,85.22c.27.21.3.24.11.08s-.16-.13.09.17a1.94,1.94,0,0,1-.29,2.22,2.51,2.51,0,0,0,0-3.54,2.56,2.56,0,0,0-3.53,0Z" transform="translate(-0.4 -0.47)"/><path class="cls-1" d="M23.41,84.2c-.06,3.07,2.27,5.34,4.69,6.86a19.08,19.08,0,0,0,7.44,2.71,2.72,2.72,0,0,0,1.92-.25A2.52,2.52,0,0,0,38.61,92c.27-1.18-.36-2.89-1.74-3.08a18.31,18.31,0,0,1-3.18-.73l-.83-.3c-.06,0-.44-.18-.11,0s-.11-.06-.18-.09A16.12,16.12,0,0,1,31.08,87c-.45-.26-.89-.55-1.31-.85s-.06-.12.06,0a2.41,2.41,0,0,0-.24-.21,6.06,6.06,0,0,1-.58-.55l-.22-.24c-.35-.39.21.33.05.07l-.36-.59c-.25-.44.11.37,0,.1,0-.11-.07-.24-.11-.36-.1-.33,0,.11,0,.22a3.53,3.53,0,0,0,0-.46,2.5,2.5,0,0,0-5,0Z" transform="translate(-0.4 -0.47)"/><path class="cls-1" d="M27,89.94l.06.17c.1.26.2.51.32.76a2,2,0,0,0,.19.31,6.63,6.63,0,0,0,.62.78,7.51,7.51,0,0,0,.76.61,3.37,3.37,0,0,0,.32.19,6,6,0,0,0,.91.38,2.33,2.33,0,0,0,.36.08,5.9,5.9,0,0,0,1,.11,1.84,1.84,0,0,0,1-.22,1.93,1.93,0,0,0,.81-.51,2,2,0,0,0,.52-.81,2,2,0,0,0,.21-1l-.09-.67a2.5,2.5,0,0,0-.64-1.1l-.51-.39a2.43,2.43,0,0,0-1.26-.34,2.36,2.36,0,0,1-.37,0l.67.09a2.31,2.31,0,0,1-.53-.15l.59.26a2.55,2.55,0,0,1-.5-.3l.51.39a2.33,2.33,0,0,1-.42-.41l.39.5a2.13,2.13,0,0,1-.26-.44l.25.59a1.55,1.55,0,0,1-.08-.23,2.8,2.8,0,0,0-1.15-1.49,1.71,1.71,0,0,0-.93-.3,1.85,1.85,0,0,0-1,0l-.6.26a2.48,2.48,0,0,0-.9.89l-.25.6a2.5,2.5,0,0,0,0,1.33Z" transform="translate(-0.4 -0.47)"/><path class="cls-1" d="M28.06,89.93a4,4,0,0,0,1.21,2,6.94,6.94,0,0,0,2.08,1.19,20.91,20.91,0,0,0,3.11.91,2.62,2.62,0,0,0,1.92-.26,2.5,2.5,0,0,0,.9-3.42,2.56,2.56,0,0,0-1.49-1.15,18.67,18.67,0,0,1-3.18-.93l.6.25a4.28,4.28,0,0,1-.86-.48l.51.39a1.93,1.93,0,0,1-.35-.35l.39.51a1.5,1.5,0,0,1-.19-.32l.25.6a2.25,2.25,0,0,1-.08-.24,2.52,2.52,0,0,0-3.07-1.75A2.59,2.59,0,0,0,28.31,88a2.69,2.69,0,0,0-.25,1.93Z" transform="translate(-0.4 -0.47)"/><path class="cls-1" d="M42.61,93.84l1.06-.41a2.87,2.87,0,0,0,1.5-1.15,1.79,1.79,0,0,0,.29-.93,1.85,1.85,0,0,0,0-1l-.25-.6a2.5,2.5,0,0,0-.9-.9l-.6-.25a2.5,2.5,0,0,0-1.33,0L41.28,89a2.8,2.8,0,0,0-1.49,1.15,1.71,1.71,0,0,0-.3.93,1.85,1.85,0,0,0,0,1l.26.6a2.48,2.48,0,0,0,.89.9l.6.25a2.5,2.5,0,0,0,1.33,0Z" transform="translate(-0.4 -0.47)"/><path class="cls-1" d="M49.25,91.32l.14.27a1.87,1.87,0,0,0,.64.7,1.94,1.94,0,0,0,.85.45,1.89,1.89,0,0,0,1,0,1.85,1.85,0,0,0,.93-.29l.5-.4A2.52,2.52,0,0,0,54,91l.09-.66a2.57,2.57,0,0,0-.34-1.27l-.14-.26a1.88,1.88,0,0,0-.64-.7,1.94,1.94,0,0,0-.85-.45,2,2,0,0,0-1-.05,2,2,0,0,0-.93.3l-.51.39A2.58,2.58,0,0,0,49,89.4l-.09.66a2.53,2.53,0,0,0,.34,1.26Z" transform="translate(-0.4 -0.47)"/><path class="cls-1" d="M53.4,88.63H50.33a2.53,2.53,0,0,0-1.76.74,1.77,1.77,0,0,0-.52.8,1.88,1.88,0,0,0-.22,1,2.5,2.5,0,0,0,.74,1.77,2.57,2.57,0,0,0,1.76.73H53.4a2.61,2.61,0,0,0,1.77-.73,2.83,2.83,0,0,0,.73-1.77,2.52,2.52,0,0,0-.73-1.76,2.6,2.6,0,0,0-1.77-.74Z" transform="translate(-0.4 -0.47)"/></svg>