<svg id="Layer_1" data-name="Layer 1" xmlns="http://www.w3.org/2000/svg" viewBox="0 0 94.8 94.8"><defs><style>.cls-1{fill:#010101;}</style></defs><path class="cls-1" d="M38.5,97.4A48.14,48.14,0,0,1,2.92,45.15C5.84,19.84,27.51,1.4,52.29,2.66c25,1.27,43.49,21.34,45,44.62C99,73.57,81.05,91.16,65.76,95.94c0-4.18.25-8.41-.06-12.59-.39-5.27-2.58-9.72-7.09-12.73,0,0,0-.08-.11-.2,1.52-.18,3-.4,4.47-.72,4.88-1,9.45-2.8,13.15-6.36A17.45,17.45,0,0,0,81.4,52.25a19.17,19.17,0,0,0-4.79-14.86.84.84,0,0,1-.14-.93,27.59,27.59,0,0,0,1.12-9.3,8.39,8.39,0,0,0-1.12-3.94,1.15,1.15,0,0,0-1.15-.62,16.2,16.2,0,0,0-11.26,5.31,1,1,0,0,1-1.28.34,35,35,0,0,0-21.64,0,.88.88,0,0,1-1.07-.3,16.63,16.63,0,0,0-9-5.1c-.72-.15-1.45-.2-2.18-.28a1.36,1.36,0,0,0-1.49.86,9.1,9.1,0,0,0-1.07,4.2,27.73,27.73,0,0,0,1.09,8.59,1.39,1.39,0,0,1-.34,1.41,19.49,19.49,0,0,0-4.56,9.65c-.94,6.72,1,12.42,6.11,16.87,3.55,3.08,7.81,4.67,12.31,5.67,1.5.34,3,.58,4.6.87-.54.41-1.1.77-1.61,1.2a15.87,15.87,0,0,0-4.26,6c-.14.35-.29.57-.7.61a37.34,37.34,0,0,1-8.32.28A5.25,5.25,0,0,1,27,76.49a19.25,19.25,0,0,0-3.42-3.73,10.29,10.29,0,0,0-3-1.68A2.3,2.3,0,0,0,19.43,71a1,1,0,0,0-.81.66.89.89,0,0,0,.39,1c2.46,1.7,3.62,4.26,4.53,7,.3.9.63,1.8,1,2.67A7.49,7.49,0,0,0,31,86.83a53.37,53.37,0,0,0,6.45.09c.6,0,.74.17.73.76,0,2.24,0,4.48,0,6.72A10.61,10.61,0,0,0,38.5,97.4Z" transform="translate(-2.6 -2.6)"/></svg>