<svg id="Layer_1" data-name="Layer 1" xmlns="http://www.w3.org/2000/svg" viewBox="0 0 100 100"><defs><style>.cls-1{fill:#0378b8;}.cls-2{fill:#fff;}</style></defs><circle class="cls-1" cx="50" cy="50" r="50"/><path class="cls-1" d="M84.85,15.39q0,34.32,0,68.63c0,.69-.16.85-.85.85q-34.33,0-68.66,0a2,2,0,0,1-.08-1q0-33.7,0-67.42c0-1.26-.13-1.13,1.13-1.13H83.85A2,2,0,0,1,84.85,15.39Z" transform="translate(0)"/><path class="cls-2" d="M53.89,45.59a1.46,1.46,0,0,0,.93-.75,9.12,9.12,0,0,1,5.69-3.58,18.85,18.85,0,0,1,9.55.12c4.09,1.16,6.39,4.06,7.76,7.88s1.5,8.11,1.54,12.24c0,5.9,0,11.79,0,17.69,0,1.89-.65,2.54-2.55,2.54-2.58,0-5.16,0-7.74,0-1.67,0-2.39-.75-2.39-2.43,0-6.87,0-13.75-.08-20.63A7.48,7.48,0,0,0,65,53.88a5.42,5.42,0,0,0-5.44-2.08A6.2,6.2,0,0,0,55,55.61a16.09,16.09,0,0,0-1.08,6.3c0,5.71,0,11.42,0,17.13,0,2.06-.62,2.69-2.67,2.69-2.46,0-4.92,0-7.38,0-1.59,0-2.3-.73-2.3-2.3V43.69A2.13,2.13,0,0,1,44,41.25c2.52,0,5,0,7.55,0a2.16,2.16,0,0,1,2.39,2.4C53.9,44.28,53.89,44.91,53.89,45.59Z" transform="translate(0)"/><path class="cls-2" d="M36.33,61.57c0,5.86,0,11.72,0,17.58,0,1.81-.73,2.57-2.55,2.58-2.46,0-4.91,0-7.37,0-1.7,0-2.48-.79-2.48-2.49q0-17.76,0-35.53a2.26,2.26,0,0,1,2.39-2.46q3.81,0,7.64,0a2.23,2.23,0,0,1,2.37,2.45C36.34,49.66,36.33,55.61,36.33,61.57Z" transform="translate(0)"/><path class="cls-2" d="M38,29.69a8.3,8.3,0,0,1-7.9,8.41c-4.25,0-8-4.08-7.92-8.44s3.36-8.15,7.9-8.18A7.93,7.93,0,0,1,38,29.69Z" transform="translate(0)"/></svg>